<svg xmlns="http://www.w3.org/2000/svg" width="1200" height="630" viewBox="0 0 1200 630">
  <defs>
    <linearGradient id="bg" x1="0" x2="1" y1="0" y2="1">
      <stop offset="0" stop-color="#fff7f8"/>
      <stop offset="1" stop-color="#ffe1e8"/>
    </linearGradient>
    <linearGradient id="orb" x1="0" x2="1" y1="0" y2="1">
      <stop offset="0" stop-color="#f8c1ce"/>
      <stop offset="1" stop-color="#ed5d86"/>
    </linearGradient>
  </defs>
  <rect width="1200" height="630" fill="url(#bg)"/>
  <circle cx="1010" cy="110" r="210" fill="#f8c1ce" opacity=".5"/>
  <circle cx="1030" cy="112" r="125" fill="none" stroke="#ed5d86" stroke-opacity=".35" stroke-width="2"/>
  <circle cx="1010" cy="110" r="74" fill="url(#orb)"/>
  <circle cx="1010" cy="110" r="55" fill="none" stroke="#fff" stroke-opacity=".65" stroke-width="5"/>
  <circle cx="982" cy="83" r="11" fill="#ffdf89"/>
  <circle cx="1040" cy="141" r="9" fill="#c3f1d0"/>
  <path d="M80 510c170-80 265 35 405-25 124-53 179-32 273 8 116 50 234 32 363-38v175H80z" fill="#f8c1ce" opacity=".65"/>
  <text x="92" y="120" fill="#ed5d86" font-family="Georgia, serif" font-size="36" font-style="italic" font-weight="700">tsabita.</text>
  <text x="92" y="265" fill="#29172f" font-family="Arial, sans-serif" font-size="78" font-weight="700">Catatan kecil,</text>
  <text x="92" y="345" fill="#ed5d86" font-family="Georgia, serif" font-size="82" font-style="italic" font-weight="700">perjalanan besar.</text>
  <text x="96" y="410" fill="#77586f" font-family="Arial, sans-serif" font-size="25">Tsabita Dianyssa Estasaadya · Mahasiswa Bioteknologi UM</text>
  <text x="1032" y="280" fill="#4d1e4d" font-family="Georgia, serif" font-size="30" font-style="italic" text-anchor="middle">learn</text>
  <text x="1032" y="316" fill="#ed5d86" font-family="Georgia, serif" font-size="30" font-style="italic" text-anchor="middle">grow</text>
  <text x="1032" y="352" fill="#4d1e4d" font-family="Georgia, serif" font-size="30" font-style="italic" text-anchor="middle">reflect</text>
  <text x="1080" y="555" fill="#ed5d86" font-family="Arial, sans-serif" font-size="38">♡</text>
</svg>
